name Run_30002_IK.mot
datacolumns 164
datarows 4
range 2.5 2.53
endheader
time	         pelvis_tilt	         pelvis_list	     pelvis_rotation	           pelvis_tx	           pelvis_ty	           pelvis_tz	       hip_flexion_r	     hip_adduction_r	      hip_rotation_r	        knee_angle_r	       ankle_angle_r	       hip_flexion_l	     hip_adduction_l	      hip_rotation_l	        knee_angle_l	       ankle_angle_l	    lumbar_extension	      lumbar_bending	     lumbar_rotation	          arm_flex_r	           arm_add_r	           arm_rot_r	        elbow_flex_r	           pro_sup_r	          arm_flex_l	           arm_add_l	           arm_rot_l	        elbow_flex_l	           pro_sup_l	    subtalar_angle_r	         mtp_angle_r	    subtalar_angle_l	         mtp_angle_l	        wrist_flex_r	         wrist_dev_r	        wrist_flex_l	         wrist_dev_l	             LASI_tx	             LASI_ty	             LASI_tz	             RASI_tx	             RASI_ty	             RASI_tz	             LPSI_tx	             LPSI_ty	             LPSI_tz	             RPSI_tx	             RPSI_ty	             RPSI_tz	             RTH1_tx	             RTH1_ty	             RTH1_tz	             RTH2_tx	             RTH2_ty	             RTH2_tz	             RTH3_tx	             RTH3_ty	             RTH3_tz	             LTH1_tx	             LTH1_ty	             LTH1_tz	             LTH2_tx	             LTH2_ty	             LTH2_tz	             LTH3_tx	             LTH3_ty	             LTH3_tz	             RTB1_tx	             RTB1_ty	             RTB1_tz	             RTB2_tx	             RTB2_ty	             RTB2_tz	             RTB3_tx	             RTB3_ty	             RTB3_tz	             LTB1_tx	             LTB1_ty	             LTB1_tz	             LTB2_tx	             LTB2_ty	             LTB2_tz	             LTB3_tx	             LTB3_ty	             LTB3_tz	             RCAL_tx	             RCAL_ty	             RCAL_tz	             RTOE_tx	             RTOE_ty	             RTOE_tz	             RMT5_tx	             RMT5_ty	             RMT5_tz	             LCAL_tx	             LCAL_ty	             LCAL_tz	             LTOE_tx	             LTOE_ty	             LTOE_tz	             LMT5_tx	             LMT5_ty	             LMT5_tz	             LACR_tx	             LACR_ty	             LACR_tz	             RACR_tx	             RACR_ty	             RACR_tz	             CLAV_tx	             CLAV_ty	             CLAV_tz	               C7_tx	               C7_ty	               C7_tz	             RUA1_tx	             RUA1_ty	             RUA1_tz	             RUA2_tx	             RUA2_ty	             RUA2_tz	             RUA3_tx	             RUA3_ty	             RUA3_tz	             RLEL_tx	             RLEL_ty	             RLEL_tz	             RMEL_tx	             RMEL_ty	             RMEL_tz	             LUA1_tx	             LUA1_ty	             LUA1_tz	             LUA2_tx	             LUA2_ty	             LUA2_tz	             LUA3_tx	             LUA3_ty	             LUA3_tz	             LLEL_tx	             LLEL_ty	             LLEL_tz	             LMEL_tx	             LMEL_ty	             LMEL_tz	      RFAsuperior_tx	      RFAsuperior_ty	      RFAsuperior_tz	        RFAradius_tx	        RFAradius_ty	        RFAradius_tz	          RFAulna_tx	          RFAulna_ty	          RFAulna_tz	      LFAsuperior_tx	      LFAsuperior_ty	      LFAsuperior_tz	        LFAradius_tx	        LFAradius_ty	        LFAradius_tz	          LFAulna_tx	          LFAulna_ty	          LFAulna_tz	
2.5	        -14.94319490	          2.83453466	         -0.78198267	          0.95362993	          0.99304612	         -0.34177319	         46.92351933	         -0.84170659	          6.25759032	        -88.03054054	          7.35407952	         12.55564734	          9.58544096	          1.10378468	        -26.60785330	         17.00196924	          3.90294740	         -3.72809353	         -5.40070271	        -37.56096587	        -19.73429135	         -9.59275119	         90.15785154	        110.35884729	        -25.36723296	        -11.51368315	        -11.59327274	        116.54286856	         99.46963802	          0.00000000	          0.00000000	          0.00000000	          0.00000000	          0.00000000	          0.00000000	          0.00000000	          0.00000000	          0.97459816	          1.02976741	         -0.45895754	          0.96995171	          1.03367889	         -0.21838808	          0.81903373	          1.10216476	         -0.40460701	          0.81196085	          1.09596542	         -0.29040965	          0.92001561	          0.92187053	         -0.17143048	          0.92498829	          0.77349433	         -0.19130354	          1.03917068	          0.65695667	         -0.19266364	          0.90870115	          0.90414900	         -0.51728269	          0.81672721	          0.75991021	         -0.47122125	          0.85490221	          0.62193729	         -0.45574293	          1.02062441	          0.44058857	         -0.25050495	          0.93777260	          0.48098362	         -0.18080648	          0.85493203	          0.35244520	         -0.24549058	          0.84868371	          0.39395294	         -0.37285770	          0.72834174	          0.32709421	         -0.42266409	          0.72566968	          0.21337486	         -0.35611036	          0.67262182	          0.36617802	         -0.23530324	          0.82019172	          0.17326742	         -0.25650255	          0.77288772	          0.19514701	         -0.16145505	          0.54523068	          0.13804705	         -0.33195595	          0.77215066	          0.06922731	         -0.31752670	          0.71626398	          0.04089459	         -0.41305878	          0.96024607	          1.51847258	         -0.51401118	          0.95890558	          1.51079222	         -0.18636047	          1.02370607	          1.47651987	         -0.31481221	          0.90394839	          1.54307465	         -0.35682845	          0.82771552	          1.44082430	         -0.13722102	          0.85178323	          1.38023257	         -0.09400941	          0.76183882	          1.32967844	         -0.06145941	          0.71107056	          1.28697400	         -0.03520154	          0.70999734	          1.25477220	         -0.11849682	          0.86740568	          1.41400590	         -0.56693936	          0.89900269	          1.33671110	         -0.58800185	          0.83097456	          1.26745522	         -0.61165357	          0.81640623	          1.20215465	         -0.63022579	          0.79899899	          1.18389280	         -0.54155256	          0.77235606	          1.19483193	         -0.02090310	          0.89859689	          1.08036910	         -0.08983931	          0.85170891	          1.05657892	         -0.04512986	          0.88799985	          1.15728551	         -0.61974888	          1.05208718	          1.17950621	         -0.52634422	          1.05035990	          1.11316153	         -0.55344044	
2.51	        -15.24829436	          2.10114081	         -1.47769386	          0.95603392	          0.99995159	         -0.34092808	         47.98837634	          0.19640318	          5.99865789	        -84.29589473	          8.04231684	          9.63826722	          8.57455935	          0.90147693	        -23.67624763	         12.96814472	          4.75033790	         -2.57235004	         -5.59083665	        -39.69713911	        -19.96882860	        -10.45859830	         92.22935231	        109.50111625	        -25.59186975	        -11.35631240	        -11.69079659	        119.19401376	         98.96623504	          0.00000000	          0.00000000	          0.00000000	          0.00000000	          0.00000000	          0.00000000	          0.00000000	          0.00000000	          0.97833102	          1.03564267	         -0.45949885	          0.97121933	          1.04184038	         -0.21839315	          0.82282969	          1.10878518	         -0.40619833	          0.81418128	          1.10411772	         -0.29173048	          0.91996660	          0.93120814	         -0.16942613	          0.92877027	          0.78284371	         -0.19092575	          1.04509880	          0.66868525	         -0.19317339	          0.90892782	          0.90845241	         -0.51605399	          0.80868082	          0.76916624	         -0.47017971	          0.84042808	          0.62952112	         -0.45511165	          1.03677167	          0.44707557	         -0.25050835	          0.95060937	          0.48186041	         -0.18224063	          0.87664312	          0.34582261	         -0.24589967	          0.82638968	          0.40136490	         -0.37339929	          0.70578107	          0.33605904	         -0.42379756	          0.70211950	          0.22178918	         -0.35753671	          0.69534419	          0.34454426	         -0.23732576	          0.85968570	          0.16565183	         -0.25640027	          0.80971973	          0.18346692	         -0.16198330	          0.52243173	          0.15136699	         -0.33461557	          0.74369754	          0.06769539	         -0.31774778	          0.68652947	          0.04174794	         -0.41242588	          0.96160676	          1.52708500	         -0.51180065	          0.95576194	          1.51866898	         -0.18501807	          1.02246017	          1.48475812	         -0.31224610	          0.90341236	          1.55019776	         -0.35572829	          0.82293332	          1.45151742	         -0.13957769	          0.84503165	          1.39102618	         -0.09434386	          0.75339270	          1.34237917	         -0.06379008	          0.70096248	          1.30066126	         -0.03883420	          0.70184489	          1.26811633	         -0.12233548	          0.87017711	          1.42227998	         -0.56655159	          0.90319140	          1.34556920	         -0.58767162	          0.83651817	          1.27573523	         -0.61293464	          0.82208350	          1.21045587	         -0.63150014	          0.80337543	          1.19211582	         -0.54294761	          0.76184655	          1.20899687	         -0.02353527	          0.89063833	          1.09640687	         -0.08991981	          0.84291644	          1.07141213	         -0.04680861	          0.89504209	          1.16938309	         -0.61931997	          1.05606459	          1.20054945	         -0.52370966	          1.05805212	          1.13373191	         -0.54965509	
2.52	        -15.58114799	          1.29719377	         -2.22268705	          0.95852738	          1.00692174	         -0.33985433	         48.82044494	          1.27383081	          5.51817601	        -80.09280868	          8.53542186	          6.99376932	          7.44446803	          0.25155474	        -21.01903514	          8.46426252	          5.58428907	         -1.32644363	         -5.56358570	        -41.86160189	        -20.01444564	        -11.51003745	         94.23681846	        108.74503931	        -25.81656810	        -11.30942400	        -11.59137780	        121.76034775	         98.80647697	          0.00000000	          0.00000000	          0.00000000	          0.00000000	          0.00000000	          0.00000000	          0.00000000	          0.00000000	          0.98228870	          1.04158724	         -0.45990037	          0.97258408	          1.05022260	         -0.21816546	          0.82685505	          1.11548358	         -0.40765502	          0.81659330	          1.11241007	         -0.29303589	          0.91923440	          0.94062177	         -0.16673034	          0.93206405	          0.79234827	         -0.18986984	          1.04979730	          0.68001481	         -0.19353770	          0.90916152	          0.91311351	         -0.51482642	          0.80158004	          0.77894270	         -0.46945192	          0.82715130	          0.63786668	         -0.45502231	          1.05178564	          0.45343173	         -0.25080656	          0.96255967	          0.48151473	         -0.18375334	          0.89998268	          0.33895972	         -0.24733071	          0.80589133	          0.40972776	         -0.37488828	          0.68490646	          0.34598844	         -0.42543290	          0.68042408	          0.23103598	         -0.35924714	          0.71975164	          0.32207520	         -0.24011011	          0.89982542	          0.15881101	         -0.25698596	          0.84741999	          0.17216308	         -0.16302462	          0.50190366	          0.16611658	         -0.33696295	          0.71574525	          0.06601783	         -0.31814034	          0.65760311	          0.04356841	         -0.41274442	          0.96289532	          1.53582292	         -0.50953858	          0.95337394	          1.52636209	         -0.18368862	          1.02135789	          1.49296971	         -0.30977839	          0.90288603	          1.55731770	         -0.35440966	          0.81915904	          1.46219977	         -0.14175801	          0.83924376	          1.40160497	         -0.09492147	          0.74585443	          1.35512477	         -0.06640341	          0.69181961	          1.31419358	         -0.04287051	          0.69480138	          1.28139257	         -0.12662371	          0.87293842	          1.43100314	         -0.56632512	          0.90705004	          1.35474969	         -0.58736266	          0.84120170	          1.28462248	         -0.61411719	          0.82712529	          1.21915406	         -0.63307554	          0.80730790	          1.20009365	         -0.54471958	          0.75227132	          1.22289400	         -0.02642251	          0.88354760	          1.11207870	         -0.09024370	          0.83510316	          1.08596431	         -0.04868715	          0.90123385	          1.18162087	         -0.61901911	          1.05867338	          1.22115828	         -0.52097625	          1.06419886	          1.15422285	         -0.54607705	
2.53	        -15.88021919	          0.47295541	         -2.99072727	          0.96104343	          1.01384727	         -0.33865441	         49.35284823	          2.35373169	          4.87481473	        -75.46019731	          8.88046736	          4.56703766	          6.29506430	         -0.71452918	        -18.68581910	          3.70859523	          6.31090714	         -0.05164871	         -5.37809656	        -43.98268974	        -19.92365003	        -12.60296953	         96.13299806	        107.95737249	        -26.04652971	        -11.35803058	        -11.32510011	        124.23915197	         99.05352933	          0.00000000	          0.00000000	          0.00000000	          0.00000000	          0.00000000	          0.00000000	          0.00000000	          0.00000000	          0.98621273	          1.04742109	         -0.46008934	          0.97392529	          1.05858449	         -0.21764712	          0.83085220	          1.12208138	         -0.40891139	          0.81907451	          1.12041400	         -0.29440499	          0.91826252	          0.94989003	         -0.16373430	          0.93490615	          0.80167090	         -0.18836420	          1.05310192	          0.69067404	         -0.19383543	          0.90956030	          0.91803879	         -0.51361812	          0.79568515	          0.78869392	         -0.46918223	          0.81521743	          0.64663675	         -0.45543725	          1.06565039	          0.45933242	         -0.25137156	          0.97378967	          0.47978000	         -0.18529092	          0.92469788	          0.33219526	         -0.24974491	          0.78717647	          0.41870333	         -0.37730706	          0.66563659	          0.35660617	         -0.42759250	          0.66077119	          0.24079541	         -0.36146007	          0.74587213	          0.29914147	         -0.24347621	          0.94038369	          0.15299177	         -0.25853911	          0.88603539	          0.16161982	         -0.16474129	          0.48356388	          0.18175785	         -0.33909875	          0.68822908	          0.06477927	         -0.31863531	          0.62943539	          0.04634891	         -0.41366307	          0.96417643	          1.54444713	         -0.50731450	          0.95161849	          1.53374519	         -0.18245807	          1.02042374	          1.50085558	         -0.30749020	          0.90242578	          1.56423527	         -0.35297567	          0.81630613	          1.47268310	         -0.14362328	          0.83440035	          1.41179325	         -0.09565858	          0.73933224	          1.36772608	         -0.06922132	          0.68382669	          1.32741380	         -0.04705109	          0.68876773	          1.29444782	         -0.13095407	          0.87557403	          1.43994505	         -0.56611998	          0.91050081	          1.36408400	         -0.58718065	          0.84497161	          1.29393779	         -0.61533068	          0.83155476	          1.22816094	         -0.63480731	          0.81088388	          1.20780026	         -0.54668697	          0.74383290	          1.23625916	         -0.02952980	          0.87729888	          1.12698154	         -0.09080042	          0.82816366	          1.09984778	         -0.05081773	          0.90666665	          1.19392690	         -0.61887922	          1.05991815	          1.24092246	         -0.51808461	          1.06904960	          1.17409379	         -0.54262070	
